<!-- <svg width="13" height="13" viewBox="0 0 13 13" fill="none" xmlns="http://www.w3.org/2000/svg">
<path d="M3.77118 11.153V10.153C3.77118 9.62261 3.98189 9.1139 4.35697 8.73882C4.73204 8.36375 5.24075 8.15304 5.77118 8.15304H7.77118C8.30161 8.15304 8.81032 8.36375 9.18539 8.73882C9.56047 9.1139 9.77118 9.62261 9.77118 10.153V11.153M4.77118 4.15304C4.77118 4.68347 4.98189 5.19218 5.35697 5.56725C5.73204 5.94232 6.24075 6.15304 6.77118 6.15304C7.30161 6.15304 7.81032 5.94232 8.18539 5.56725C8.56047 5.19218 8.77118 4.68347 8.77118 4.15304C8.77118 3.62261 8.56047 3.1139 8.18539 2.73882C7.81032 2.36375 7.30161 2.15304 6.77118 2.15304C6.24075 2.15304 5.73204 2.36375 5.35697 2.73882C4.98189 3.1139 4.77118 3.62261 4.77118 4.15304Z" stroke="black" stroke-linecap="round" stroke-linejoin="round"/>
</svg> -->

<svg width="24" height="24" viewBox="0 0 12 12" fill="none" xmlns="http://www.w3.org/2000/svg">
<path d="M3 10.5V9.5C3 8.96957 3.21071 8.46086 3.58579 8.08579C3.96086 7.71071 4.46957 7.5 5 7.5H7C7.53043 7.5 8.03914 7.71071 8.41421 8.08579C8.78929 8.46086 9 8.96957 9 9.5V10.5M4 3.5C4 4.03043 4.21071 4.53914 4.58579 4.91421C4.96086 5.28929 5.46957 5.5 6 5.5C6.53043 5.5 7.03914 5.28929 7.41421 4.91421C7.78929 4.53914 8 4.03043 8 3.5C8 2.96957 7.78929 2.46086 7.41421 2.08579C7.03914 1.71071 6.53043 1.5 6 1.5C5.46957 1.5 4.96086 1.71071 4.58579 2.08579C4.21071 2.46086 4 2.96957 4 3.5Z" stroke="white" stroke-linecap="round" stroke-linejoin="round"/>
</svg>
